<?xml version="1.0" encoding="utf-8"?>
<!-- Generator: Adobe Illustrator 21.0.2, SVG Export Plug-In . SVG Version: 6.00 Build 0)  -->
<svg version="1.1" id="Layer_1" xmlns="http://www.w3.org/2000/svg" xmlns:xlink="http://www.w3.org/1999/xlink" x="0px" y="0px"
	 viewBox="0 0 642.2 613.5" style="enable-background:new 0 0 642.2 613.5;" xml:space="preserve">
<style type="text/css">
	.st0{fill:#2D2D2D;}
	.st1{fill:#FFFFFF;}
</style>
<rect x="-1800.9" y="89.8" class="st0" width="1394" height="818"/>
<g>
	<g>
		<g>
			
				<rect x="-1196.7" y="365.9" transform="matrix(6.123234e-17 -1 1 6.123234e-17 -1594.1622 -794.3457)" class="st1" width="4.9" height="68"/>
			
				<rect x="-1016" y="365.9" transform="matrix(6.123234e-17 -1 1 6.123234e-17 -1413.4122 -613.5957)" class="st1" width="4.9" height="68"/>
		</g>
		<g>
			<path class="st1" d="M-1124.7,421.2l1.1,1.6h-7.5l1-1.6v-42.6h-3.3l-3.1,1l0.7-2.6h16.8l0.7,2.6l-3.1-1h-3.3V421.2z"/>
			<path class="st1" d="M-1101.2,377h7.5l-1,1.6v42.7l1,1.5h-7.5l1.1-1.5v-29.7h-7.1v29.7l1.1,1.5h-7.5l1-1.5v-42.7l-1-1.6h7.5
				l-1.1,1.6v11.2h7.1v-11.2L-1101.2,377z"/>
			<path class="st1" d="M-1072.7,379.6l-3.1-0.8h-5.7v11.1h5.1l2.1-0.5v2.7l-2.2-0.4h-5v29.6h7l3.2-1l-0.8,2.6h-15.8l1-1.6v-42.7
				l-1-1.5h14.5L-1072.7,379.6z"/>
		</g>
	</g>
	<path class="st1" d="M-917.7,432.3l24.7-29.5c1.1-1.4,1.5-3.2,0.9-4.9c-0.6-1.7-2.1-2.9-3.8-3.2l-39.8-7v10.2l29.5,5.2l-24.6,29.3
		H-917.7z"/>
	<path class="st1" d="M-783.1,358.3l-22.9-63c-0.6-1.7-2.1-2.9-3.8-3.2l-65.9-11.6l-434.4-76.8l-65.9-11.6c-0.1,0-0.1,0-0.2,0
		c-0.1,0-0.1,0-0.2,0c-0.1,0-0.1,0-0.2,0c-0.1,0-0.2,0-0.2,0c-0.1,0-0.3,0-0.4,0c-0.1,0-0.1,0-0.2,0c-0.2,0-0.4,0-0.5,0.1
		c0,0,0,0,0,0c-1.1,0.2-2,0.8-2.7,1.7l-42.9,51.1c-1.2,1.3-1.7,3.3-1,5.1l66.3,182.3h10.6l-66.5-183l35.6-42.5l82,225.5h10.6
		l-83.2-228.9l57.4,10.1l434.4,76.8l63.1,11.1l18.9,52.1l-123.4-21.8l-368.4-65.1c-1.8-0.3-3.5,0.3-4.7,1.7
		c-0.4,0.5-0.7,1.1-0.9,1.7c-0.1,0.4-0.2,0.8-0.2,1.3c0,0.6,0.1,1.3,0.3,1.9l19.6,53.9l10.8,0.6l-18.1-49.8l359.9,63.6l123.4,21.8
		l-37.5,44.6l-20.4,24.2h13.1l15-17.8l43.1-51.3c0.7-0.9,1.1-1.9,1.2-3C-782.7,359.6-782.8,358.9-783.1,358.3z"/>
	<g>
		<path class="st1" d="M-1351.6,455.3h16.3l-2.2,3.3v93l2.2,3.3h-16.3l2.3-3.3v-93L-1351.6,455.3z"/>
		<path class="st1" d="M-1291.1,528.3l16.5-73h14.2l-1.8,3.3v92.9l1.8,3.5h-15.6l2-3.5v-76.7l-18.1,80.2h-6.7l-16.5-79.7v76.2
			l1.8,3.5h-8.5l1.8-3.5v-92.9l-1.8-3.3h15.6L-1291.1,528.3z"/>
		<path class="st1" d="M-1228.9,495.9h-5.9v55.6l2.3,3.5h-16.3l2.2-3.5v-92.4l-2.2-3.8h18.6c7.5,0,13.9,1.7,19,5.2
			c5.1,3.5,7.7,8,7.7,13.6c0,5.2-2.1,10-6.4,14.3C-1214.6,493.4-1221,495.9-1228.9,495.9z M-1234.7,459.1v32.6h4
			c3.8,0,7.1-1.7,9.8-5.1c2.7-3.4,4.1-8,4.1-13.7c0-4-1.3-7.3-4-9.8s-6-3.9-9.9-3.9H-1234.7z"/>
		<path class="st1" d="M-1143.9,505.1c0,16.5-2.9,29.6-8.7,39.1c-4.9,8-10.6,12-17.3,12c-6.7,0-12.4-4-17.3-12.1
			c-5.8-9.4-8.7-22.4-8.7-38.9c0-16.5,2.9-29.6,8.7-39.1c4.9-8,10.6-12,17.3-12c6.7,0,12.4,4,17.3,12
			C-1146.8,475.4-1143.9,488.4-1143.9,505.1z M-1158.5,505.3c0-31.7-3.8-47.5-11.4-47.5c-7.7,0-11.6,15.8-11.6,47.5
			c0,31.7,3.9,47.5,11.6,47.5C-1162.3,552.8-1158.5,537-1158.5,505.3z"/>
		<path class="st1" d="M-1109.1,457.3c-3.4-0.6-6.5,0.2-9.1,2.4c-2.6,2.2-3.9,5.4-3.9,9.6c0,2.9,0.7,6.1,2.2,9.7
			c2.1,5.3,5.8,11.4,11,18.1c6.8,8.8,10.7,14.1,11.8,16c3.7,6.1,5.5,12,5.5,17.8c0,6.7-2.5,12.7-7.5,18.2c-5,5.5-11,8.2-18,8.2
			c-3,0-5.7-0.6-8.2-1.7c-3.6-1.8-5.7-2.8-6.4-3c-0.7-0.2-1.7-0.4-2.9-0.5l2.7-13c2.8,8.4,7.9,12.6,15.3,12.6c3.9,0,7.1-1.6,9.7-4.8
			c2.6-3.2,3.9-6.9,3.9-11c0-6-2.5-12.6-7.5-19.8c-4.8-6.1-9.5-12.3-14.1-18.5c-5.3-7.3-8.3-14-9-20.1c-0.7-7.3,1.3-13.3,6-18
			c4.3-4.2,9.7-6.3,16.1-6.3c4.4,0,8.5,1.1,12.3,3.3c0.4,0.3,1.7,0.8,3.8,1.3l-5.2,7c-0.7-1.3-1.4-2.5-2.2-3.5
			C-1104.5,459-1106.7,457.6-1109.1,457.3z"/>
		<path class="st1" d="M-1058.5,457.3c-3.4-0.6-6.5,0.2-9.1,2.4c-2.6,2.2-3.9,5.4-3.9,9.6c0,2.9,0.7,6.1,2.2,9.7
			c2.1,5.3,5.8,11.4,11,18.1c6.8,8.8,10.7,14.1,11.8,16c3.7,6.1,5.5,12,5.5,17.8c0,6.7-2.5,12.7-7.5,18.2c-5,5.5-11,8.2-18,8.2
			c-3,0-5.7-0.6-8.2-1.7c-3.6-1.8-5.7-2.8-6.4-3c-0.7-0.2-1.7-0.4-2.9-0.5l2.7-13c2.8,8.4,7.9,12.6,15.3,12.6c3.9,0,7.1-1.6,9.7-4.8
			c2.6-3.2,3.9-6.9,3.9-11c0-6-2.5-12.6-7.5-19.8c-4.8-6.1-9.5-12.3-14.1-18.5c-5.3-7.3-8.3-14-9-20.1c-0.7-7.3,1.3-13.3,6-18
			c4.3-4.2,9.7-6.3,16.1-6.3c4.4,0,8.5,1.1,12.3,3.3c0.4,0.3,1.7,0.8,3.8,1.3l-5.2,7c-0.7-1.3-1.4-2.5-2.2-3.5
			C-1053.9,459-1056.1,457.6-1058.5,457.3z"/>
		<path class="st1" d="M-1029.4,455.3h16.3l-2.2,3.3v93l2.2,3.3h-16.3l2.3-3.3v-93L-1029.4,455.3z"/>
		<path class="st1" d="M-999.8,555l2.2-3.3v-92.5l-2.2-3.8h18.8c7.4,0,13.7,1.7,18.8,5.2c5.1,3.5,7.7,8,7.7,13.6
			c0,3.7-1.2,7.2-3.5,10.6c-2.4,3.9-5.8,6.8-10.2,8.8c13.1,4.1,19.6,14,19.6,29.6c0,8.2-3.2,15.6-9.7,22c-6.5,6.5-13.9,9.7-22.2,9.7
			H-999.8z M-985.8,459.1v32.6h4.2c3.7,0,6.9-1.7,9.7-5.1c2.7-3.4,4.1-8,4.1-13.7c0-4-1.3-7.3-4-9.8c-2.7-2.6-6-3.9-9.9-3.9H-985.8z
			 M-985.8,495.9v55.2h2.3c4.6,0,8.7-2,12.4-6c4.8-5.2,7.2-12.5,7-21.9c-0.1-8.5-1.7-15.2-4.9-20.4c-2.9-4.7-6.4-7-10.6-7H-985.8z"
			/>
		<path class="st1" d="M-936.4,551.5v-92.9l-2.2-3.3h16.3l-2.3,3.3v92.9h15.3l6.9-2.2l-1.7,5.7h-34.4L-936.4,551.5z"/>
		<path class="st1" d="M-859.2,461l-6.7-1.8h-12.4v24.1h11.1l4.5-1.2v5.8l-4.7-0.8h-10.9v64.4h15.3l6.9-2.2l-1.7,5.7h-34.4l2.2-3.5
			v-92.9l-2.2-3.3h31.6L-859.2,461z"/>
	</g>
	<path class="st1" d="M-1045.2,658.8l-73.2,87.1l-41.3,49.2l-54.5-9.8l80.6-96l25.7-30.6h-13.1l-20.3,24.2l-80.6,95.9l-72.9-200.6
		h-10.6l77.1,212.1c0,0,0,0,0,0c0,0,0,0,0,0c0.6,1.7,2.1,2.9,3.8,3.2l65.8,11.8c0.3,0.1,0.6,0.1,0.9,0.1c1.5,0,2.9-0.7,3.9-1.8
		l121.7-145H-1045.2z"/>
	<g>
		<g>
			
				<rect x="-1196.7" y="575.6" transform="matrix(6.123234e-17 -1 1 6.123234e-17 -1803.8784 -584.6295)" class="st1" width="4.9" height="68"/>
			
				<rect x="-1016" y="575.6" transform="matrix(6.123234e-17 -1 1 6.123234e-17 -1623.1284 -403.8794)" class="st1" width="4.9" height="68"/>
		</g>
		<g>
			<g>
				<path class="st1" d="M-1122.1,609.4c0,4.6,0.3,8.8,1,12.3c1.1,6.2,3,9.3,5.7,9.3c2.4,0,4.1-1.4,4.9-4.2l2.3,3.1
					c-0.7,0.3-1.2,0.5-1.6,0.8c-2.3,1.7-4.4,2.6-6.3,2.6c-4.4,0-7.8-3-10.1-9.1c-1.7-4.4-2.5-9.3-2.5-14.7c0-8.5,1.6-14.8,4.7-19
					c2.1-2.9,4.9-4.3,8.2-4.3c1.4,0,2.6,0.3,3.5,0.8c1.4,0.8,2.3,1.3,2.7,1.4c0.2,0.1,0.4,0.2,0.6,0.2l-2.4,3
					c-0.5-2.4-2-3.7-4.4-3.7c-2.6,0-4.4,3.1-5.5,9.3C-1121.8,600.6-1122.1,604.7-1122.1,609.4z"/>
				<path class="st1" d="M-1081.9,609.7c0,7.6-1.3,13.6-4,18c-2.2,3.7-4.9,5.5-8,5.5s-5.7-1.9-8-5.6c-2.7-4.3-4-10.3-4-17.9
					c0-7.6,1.3-13.6,4-18c2.2-3.7,4.9-5.5,8-5.5s5.7,1.8,8,5.5C-1083.3,596.1-1081.9,602.1-1081.9,609.7z M-1088.7,609.8
					c0-14.5-1.7-21.8-5.2-21.8c-3.5,0-5.3,7.3-5.3,21.8c0,14.5,1.8,21.8,5.3,21.8C-1090.4,631.6-1088.7,624.4-1088.7,609.8z"/>
				<path class="st1" d="M-1076.4,625.6h5.4v7h-5.4V625.6z"/>
			</g>
		</g>
	</g>
</g>
<g>
	<g>
		<g>
			
				<rect x="228.3" y="173.9" transform="matrix(6.123234e-17 -1 1 6.123234e-17 22.8378 438.6543)" class="st1" width="4.9" height="68"/>
			
				<rect x="409" y="173.9" transform="matrix(6.123234e-17 -1 1 6.123234e-17 203.5878 619.4043)" class="st1" width="4.9" height="68"/>
		</g>
		<g>
			<path class="st1" d="M300.3,229.2l1.1,1.6h-7.5l1-1.6v-42.6h-3.3l-3.1,1l0.7-2.6h16.8l0.7,2.6l-3.1-1h-3.3V229.2z"/>
			<path class="st1" d="M323.8,185h7.5l-1,1.6v42.7l1,1.5h-7.5l1.1-1.5v-29.7h-7.1v29.7l1.1,1.5h-7.5l1-1.5v-42.7l-1-1.6h7.5
				l-1.1,1.6v11.2h7.1v-11.2L323.8,185z"/>
			<path class="st1" d="M352.3,187.6l-3.1-0.8h-5.7v11.1h5.1l2.1-0.5v2.7l-2.2-0.4h-5v29.6h7l3.2-1l-0.8,2.6h-15.8l1-1.6v-42.7
				l-1-1.5h14.5L352.3,187.6z"/>
		</g>
	</g>
	<path class="st1" d="M507.3,240.3l24.7-29.5c1.1-1.4,1.5-3.2,0.9-4.9c-0.6-1.7-2.1-2.9-3.8-3.2l-39.8-7v10.2l29.5,5.2l-24.6,29.3
		H507.3z"/>
	<path class="st1" d="M641.9,166.3l-22.9-63c-0.6-1.7-2.1-2.9-3.8-3.2l-65.9-11.6L114.9,11.7L48.9,0.1c-0.1,0-0.1,0-0.2,0
		c-0.1,0-0.1,0-0.2,0c-0.1,0-0.1,0-0.2,0c-0.1,0-0.2,0-0.2,0c-0.1,0-0.3,0-0.4,0c-0.1,0-0.1,0-0.2,0c-0.2,0-0.4,0-0.5,0.1
		c0,0,0,0,0,0c-1.1,0.2-2,0.8-2.7,1.7L1.3,52.9c-1.2,1.3-1.7,3.3-1,5.1l66.3,182.3h10.6l-66.5-183l35.6-42.5l82,225.5h10.6
		L55.7,11.4l57.4,10.1l434.4,76.8l63.1,11.1l18.9,52.1l-123.4-21.8L137.8,74.7c-1.8-0.3-3.5,0.3-4.7,1.7c-0.4,0.5-0.7,1.1-0.9,1.7
		c-0.1,0.4-0.2,0.8-0.2,1.3c0,0.6,0.1,1.3,0.3,1.9l19.6,53.9l10.8,0.6L144.6,86l359.9,63.6l123.4,21.8l-37.5,44.6L570,240.3H583
		l15-17.8l43.1-51.3c0.7-0.9,1.1-1.9,1.2-3C642.3,167.6,642.2,166.9,641.9,166.3z"/>
	<g>
		<path class="st1" d="M73.4,263.3h16.3l-2.2,3.3v93l2.2,3.3H73.4l2.3-3.3v-93L73.4,263.3z"/>
		<path class="st1" d="M133.9,336.3l16.5-73h14.2l-1.8,3.3v92.9l1.8,3.5H149l2-3.5v-76.7L132.8,363h-6.7l-16.5-79.7v76.2l1.8,3.5
			h-8.5l1.8-3.5v-92.9l-1.8-3.3h15.6L133.9,336.3z"/>
		<path class="st1" d="M196.1,303.9h-5.9v55.6l2.3,3.5h-16.3l2.2-3.5v-92.4l-2.2-3.8h18.6c7.5,0,13.9,1.7,19,5.2
			c5.1,3.5,7.7,8,7.7,13.6c0,5.2-2.1,10-6.4,14.3C210.4,301.4,204,303.9,196.1,303.9z M190.3,267.1v32.6h4c3.8,0,7.1-1.7,9.8-5.1
			c2.7-3.4,4.1-8,4.1-13.7c0-4-1.3-7.3-4-9.8c-2.7-2.6-6-3.9-9.9-3.9H190.3z"/>
		<path class="st1" d="M281.1,313.1c0,16.5-2.9,29.6-8.7,39.1c-4.9,8-10.6,12-17.3,12c-6.7,0-12.4-4-17.3-12.1
			c-5.8-9.4-8.7-22.4-8.7-38.9c0-16.5,2.9-29.6,8.7-39.1c4.9-8,10.6-12,17.3-12c6.7,0,12.4,4,17.3,12
			C278.2,283.4,281.1,296.4,281.1,313.1z M266.5,313.3c0-31.7-3.8-47.5-11.4-47.5c-7.7,0-11.6,15.8-11.6,47.5
			c0,31.7,3.9,47.5,11.6,47.5C262.7,360.8,266.5,345,266.5,313.3z"/>
		<path class="st1" d="M315.9,265.3c-3.4-0.6-6.5,0.2-9.1,2.4c-2.6,2.2-3.9,5.4-3.9,9.6c0,2.9,0.7,6.1,2.2,9.7
			c2.1,5.3,5.8,11.4,11,18.1c6.8,8.8,10.7,14.1,11.8,16c3.7,6.1,5.5,12,5.5,17.8c0,6.7-2.5,12.7-7.5,18.2c-5,5.5-11,8.2-18,8.2
			c-3,0-5.7-0.6-8.2-1.7c-3.6-1.8-5.7-2.8-6.4-3c-0.7-0.2-1.7-0.4-2.9-0.5l2.7-13c2.8,8.4,7.9,12.6,15.3,12.6c3.9,0,7.1-1.6,9.7-4.8
			c2.6-3.2,3.9-6.9,3.9-11c0-6-2.5-12.6-7.5-19.8c-4.8-6.1-9.5-12.3-14.1-18.5c-5.3-7.3-8.3-14-9-20.1c-0.7-7.3,1.3-13.3,6-18
			c4.3-4.2,9.7-6.3,16.1-6.3c4.4,0,8.5,1.1,12.3,3.3c0.4,0.3,1.7,0.8,3.8,1.3l-5.2,7c-0.7-1.3-1.4-2.5-2.2-3.5
			C320.5,267,318.3,265.6,315.9,265.3z"/>
		<path class="st1" d="M366.5,265.3c-3.4-0.6-6.5,0.2-9.1,2.4c-2.6,2.2-3.9,5.4-3.9,9.6c0,2.9,0.7,6.1,2.2,9.7
			c2.1,5.3,5.8,11.4,11,18.1c6.8,8.8,10.7,14.1,11.8,16c3.7,6.1,5.5,12,5.5,17.8c0,6.7-2.5,12.7-7.5,18.2c-5,5.5-11,8.2-18,8.2
			c-3,0-5.7-0.6-8.2-1.7c-3.6-1.8-5.7-2.8-6.4-3c-0.7-0.2-1.7-0.4-2.9-0.5l2.7-13c2.8,8.4,7.9,12.6,15.3,12.6c3.9,0,7.1-1.6,9.7-4.8
			c2.6-3.2,3.9-6.9,3.9-11c0-6-2.5-12.6-7.5-19.8c-4.8-6.1-9.5-12.3-14.1-18.5c-5.3-7.3-8.3-14-9-20.1c-0.7-7.3,1.3-13.3,6-18
			c4.3-4.2,9.7-6.3,16.1-6.3c4.4,0,8.5,1.1,12.3,3.3c0.4,0.3,1.7,0.8,3.8,1.3l-5.2,7c-0.7-1.3-1.4-2.5-2.2-3.5
			C371.1,267,368.9,265.6,366.5,265.3z"/>
		<path class="st1" d="M395.6,263.3h16.3l-2.2,3.3v93l2.2,3.3h-16.3l2.3-3.3v-93L395.6,263.3z"/>
		<path class="st1" d="M425.2,363l2.2-3.3v-92.5l-2.2-3.8H444c7.4,0,13.7,1.7,18.8,5.2c5.1,3.5,7.7,8,7.7,13.6
			c0,3.7-1.2,7.2-3.5,10.6c-2.4,3.9-5.8,6.8-10.2,8.8c13.1,4.1,19.6,14,19.6,29.6c0,8.2-3.2,15.6-9.7,22s-13.9,9.7-22.2,9.7H425.2z
			 M439.2,267.1v32.6h4.2c3.7,0,6.9-1.7,9.7-5.1c2.7-3.4,4.1-8,4.1-13.7c0-4-1.3-7.3-4-9.8c-2.7-2.6-6-3.9-9.9-3.9H439.2z
			 M439.2,303.9v55.2h2.3c4.6,0,8.7-2,12.4-6c4.8-5.2,7.2-12.5,7-21.9c-0.1-8.5-1.7-15.2-4.9-20.4c-2.9-4.7-6.4-7-10.6-7H439.2z"/>
		<path class="st1" d="M488.6,359.5v-92.9l-2.2-3.3h16.3l-2.3,3.3v92.9h15.3l6.9-2.2l-1.7,5.7h-34.4L488.6,359.5z"/>
		<path class="st1" d="M565.8,269l-6.7-1.8h-12.4v24.1h11.1l4.5-1.2v5.8l-4.7-0.8h-10.9v64.4h15.3l6.9-2.2l-1.7,5.7h-34.4l2.2-3.5
			v-92.9l-2.2-3.3h31.6L565.8,269z"/>
	</g>
	<path class="st1" d="M379.8,466.8l-73.2,87.1l-41.3,49.2l-54.5-9.8l80.6-96l25.7-30.6h-13.1l-20.3,24.2l-80.6,95.9l-72.9-200.6
		h-10.6l77.1,212.1c0,0,0,0,0,0c0,0,0,0,0,0c0.6,1.7,2.1,2.9,3.8,3.2l65.8,11.8c0.3,0.1,0.6,0.1,0.9,0.1c1.5,0,2.9-0.7,3.9-1.8
		l121.7-145H379.8z"/>
	<g>
		<g>
			
				<rect x="228.3" y="383.6" transform="matrix(6.123234e-17 -1 1 6.123234e-17 -186.8785 648.3705)" class="st1" width="4.9" height="68"/>
			
				<rect x="409" y="383.6" transform="matrix(6.123234e-17 -1 1 6.123234e-17 -6.1284 829.1205)" class="st1" width="4.9" height="68"/>
		</g>
		<g>
			<g>
				<path class="st1" d="M302.9,417.4c0,4.6,0.3,8.8,1,12.3c1.1,6.2,3,9.3,5.7,9.3c2.4,0,4.1-1.4,4.9-4.2l2.3,3.1
					c-0.7,0.3-1.2,0.5-1.6,0.8c-2.3,1.7-4.4,2.6-6.3,2.6c-4.4,0-7.8-3-10.1-9.1c-1.7-4.4-2.5-9.3-2.5-14.7c0-8.5,1.6-14.8,4.7-19
					c2.1-2.9,4.9-4.3,8.2-4.3c1.4,0,2.6,0.3,3.5,0.8c1.4,0.8,2.3,1.3,2.7,1.4c0.2,0.1,0.4,0.2,0.6,0.2l-2.4,3
					c-0.5-2.4-2-3.7-4.4-3.7c-2.6,0-4.4,3.1-5.5,9.3C303.2,408.6,302.9,412.7,302.9,417.4z"/>
				<path class="st1" d="M343.1,417.7c0,7.6-1.3,13.6-4,18c-2.2,3.7-4.9,5.5-8,5.5s-5.7-1.9-8-5.6c-2.7-4.3-4-10.3-4-17.9
					c0-7.6,1.3-13.6,4-18c2.2-3.7,4.9-5.5,8-5.5s5.7,1.8,8,5.5C341.7,404.1,343.1,410.1,343.1,417.7z M336.3,417.8
					c0-14.5-1.7-21.8-5.2-21.8c-3.5,0-5.3,7.3-5.3,21.8c0,14.5,1.8,21.8,5.3,21.8C334.6,439.6,336.3,432.4,336.3,417.8z"/>
				<path class="st1" d="M348.6,433.6h5.4v7h-5.4V433.6z"/>
			</g>
		</g>
	</g>
</g>
</svg>
